# xmcd
#
# Track frame offsets: 
#        150
#        18202
#        37138
#        55800
#        74323
#        88432
#        101121
#        114877
#        126138
#        142069
#        154653
#        167678
#        181140
#        203701
#        224842
#        245189
#        266402
#        280482
#        294146
#        313141
#
# Disc length: 4404 seconds
#
# Revision: 1
# Processed by: cddbd v1.5.2PL0 Copyright (c) Steve Scherf et al.
# Submitted via: ExactAudioCopyFreeDBPlugin 1.0
#
DISCID=36113214
DTITLE=Various Artist - Swing Time 089 - All-Star Groups 04 - 1943-44
DYEAR=1943
DGENRE=Jazz
TTITLE0=Edmond Hall’s Blue Note Jazzmen - High Society
TTITLE1=Edmond Hall’s Blue Note Jazzmen - Blues At Blue Note
TTITLE2=Edmond Hall’s Blue Note Jazzmen - Night Shift Blues
TTITLE3=Edmond Hall’s Blue Note Jazzmen - Royal Garden Blues
TTITLE4=Ben Webster And His Orchestra - Woke Up Clipped
TTITLE5=Ben Webster And His Orchestra - Teezol
TTITLE6=Ben Webster And His Orchestra - Nuff Said
TTITLE7=Ben Webster And His Orchestra - The Horn (I Got Rhythm)
TTITLE8=Ben Webster And His Orchestra - Dirty Deal
TTITLE9=Ben Webster And His Orchestra - Don't Blame Me
TTITLE10=Ben Webster And His Orchestra - I Surrender Dear
TTITLE11=Ben Webster And His Orchestra - Tea For Two
TTITLE12=Charlie Shavers Quintet - Mountain Air
TTITLE13=Charlie Shavers Quintet - Curry In A Hurry
TTITLE14=Charlie Shavers Quintet - Stardust
TTITLE15=Charlie Shavers Quintet - Rosetta
TTITLE16=Edmond Hall Swingtet - It's Been So Long
TTITLE17=Edmond Hall Swingtet - I Can't Believe That You're In Love Wi
TTITLE17=th Me
TTITLE18=Edmond Hall Swingtet - Big City Blues
TTITLE19=Edmond Hall Swingtet - Steamin' And Beamin'
EXTD=YEAR: 2006
EXTT0=
EXTT1=
EXTT2=
EXTT3=
EXTT4=
EXTT5=
EXTT6=
EXTT7=
EXTT8=
EXTT9=
EXTT10=
EXTT11=
EXTT12=
EXTT13=
EXTT14=
EXTT15=
EXTT16=
EXTT17=
EXTT18=
EXTT19=
PLAYORDER=
